<svg xmlns="http://www.w3.org/2000/svg" xmlns:xlink="http://www.w3.org/1999/xlink" width="500" zoomAndPan="magnify" viewBox="0 0 375 374.999991" height="500" preserveAspectRatio="xMidYMid meet" version="1.0"><defs><clipPath id="cef16a5e6d"><path d="M 24.65625 0 L 353.15625 0 L 353.15625 375 L 24.65625 375 Z M 24.65625 0 " clip-rule="nonzero"/></clipPath></defs><path fill="#463f57" d="M 295.386719 125.949219 C 294.722656 124.722656 293.847656 123.515625 292.027344 122.59375 L 266.015625 107.566406 C 265.65625 107.359375 265.273438 107.203125 264.859375 107.097656 C 264.734375 107.066406 264.605469 107.066406 264.464844 107.046875 C 264.195312 107 263.925781 106.953125 263.65625 106.953125 L 263.601562 106.953125 L 263.601562 106.964844 C 262.832031 106.976562 262.078125 107.183594 261.410156 107.566406 L 202.882812 141.375 L 202.832031 141.273438 L 198.109375 144.007812 C 192.410156 147.292969 185.40625 147.292969 179.707031 144.007812 L 154.121094 129.234375 C 152.703125 128.410156 151.828125 126.890625 151.828125 125.246094 C 151.828125 123.601562 152.703125 122.082031 154.121094 121.257812 L 179.707031 106.492188 C 185.40625 103.203125 192.410156 103.203125 198.109375 106.492188 L 204.269531 110.046875 C 205.691406 110.867188 207.4375 110.867188 208.863281 110.046875 L 232.691406 96.289062 C 234.117188 95.46875 234.988281 93.949219 234.988281 92.304688 C 234.988281 90.660156 234.117188 89.140625 232.691406 88.320312 L 198.109375 68.339844 C 192.410156 65.054688 185.40625 65.054688 179.707031 68.339844 L 94.988281 117.277344 C 88.855469 120.820312 88.855469 129.667969 94.988281 133.210938 L 179.707031 182.148438 C 185.40625 185.433594 192.410156 185.433594 198.109375 182.148438 L 263.601562 144.316406 L 263.601562 230.492188 L 242.558594 242.6875 L 198.109375 268.4375 C 196.695312 269.246094 195.195312 269.863281 193.628906 270.285156 C 188.933594 271.53125 183.929688 270.863281 179.707031 268.4375 L 118.808594 233.265625 C 115.960938 231.621094 114.207031 228.578125 114.207031 225.292969 L 114.207031 175.0625 C 114.207031 173.417969 113.328125 171.890625 111.910156 171.082031 L 88.085938 157.308594 C 86.664062 156.484375 84.910156 156.484375 83.484375 157.308594 C 82.0625 158.128906 81.1875 159.65625 81.1875 161.300781 L 81.1875 244.367188 C 81.1875 247.65625 82.941406 250.683594 85.789062 252.339844 L 179.707031 306.589844 C 182.464844 308.179688 185.597656 309.015625 188.78125 309.042969 L 188.84375 309.042969 C 189.292969 309.042969 189.742188 308.988281 190.191406 308.964844 C 190.539062 308.9375 190.882812 308.9375 191.230469 308.898438 C 191.707031 308.835938 192.179688 308.71875 192.640625 308.628906 C 192.964844 308.554688 193.285156 308.515625 193.59375 308.4375 C 194.105469 308.308594 194.59375 308.117188 195.082031 307.9375 C 195.363281 307.835938 195.632812 307.769531 195.890625 307.667969 C 196.644531 307.359375 197.390625 307 198.097656 306.589844 L 279.128906 259.785156 L 291.976562 252.492188 C 294.847656 250.863281 296.632812 247.808594 296.632812 244.496094 L 296.632812 130.554688 C 296.632812 128.910156 296.183594 127.328125 295.386719 125.949219 " fill-opacity="1" fill-rule="nonzero"/><g clip-path="url(#cef16a5e6d)"><path fill="#463f57" d="M 197.878906 40.824219 C 195.144531 39.246094 192.066406 38.40625 188.90625 38.375 C 185.765625 38.40625 182.671875 39.25 179.9375 40.824219 L 66.765625 106.191406 C 61.089844 109.472656 57.589844 115.527344 57.589844 122.085938 L 57.589844 252.832031 C 57.589844 259.390625 61.085938 265.449219 66.765625 268.722656 L 179.9375 334.089844 C 182.710938 335.695312 185.839844 336.542969 189.035156 336.554688 C 192.230469 336.542969 195.375 335.695312 198.148438 334.101562 L 310.824219 269.019531 C 316.496094 265.746094 320 259.6875 320 253.125 L 320 215.347656 C 319.988281 213.703125 320.871094 212.191406 322.285156 211.367188 L 346.28125 197.515625 C 347.691406 196.695312 349.449219 196.695312 350.859375 197.515625 C 352.285156 198.339844 353.15625 199.851562 353.15625 201.496094 L 353.15625 271.855469 C 353.144531 274.859375 352.402344 277.8125 350.988281 280.457031 C 350.628906 282.191406 348.742188 284.230469 346.074219 286.324219 C 346.023438 286.375 345.945312 286.425781 345.882812 286.476562 C 339.105469 291.753906 327.890625 297.195312 325.902344 298.351562 L 198.148438 372.140625 C 195.285156 373.78125 192.027344 374.628906 188.730469 374.589844 L 188.585938 374.589844 L 188.585938 374.578125 C 185.546875 374.5 182.570312 373.652344 179.9375 372.140625 L 33.832031 287.75 C 28.15625 284.476562 24.660156 278.414062 24.660156 271.855469 L 24.660156 103.074219 C 24.660156 100.128906 25.03125 97.125 26.324219 94.585938 C 26.503906 93.925781 28.273438 90.683594 31.921875 88.015625 C 33.296875 87.089844 35.726562 85.84375 38.003906 84.527344 L 179.527344 2.789062 C 182.378906 1.144531 185.625 0.300781 188.910156 0.339844 C 192.207031 0.300781 195.441406 1.144531 198.289062 2.789062 L 328.882812 78.207031 C 329.175781 78.386719 329.40625 78.605469 329.664062 78.8125 L 331.320312 79.757812 C 335.757812 82.113281 342.714844 85.703125 346.488281 88.570312 L 346.792969 88.800781 C 346.847656 88.839844 346.898438 88.878906 346.949219 88.910156 C 347.078125 89.023438 347.167969 89.132812 347.296875 89.25 C 348.679688 90.40625 349.863281 91.769531 350.773438 93.292969 C 350.796875 93.3125 350.8125 93.339844 350.835938 93.363281 L 350.824219 93.367188 C 352.351562 95.914062 353.160156 98.828125 353.160156 101.800781 L 353.160156 163.601562 C 353.160156 165.242188 352.285156 166.757812 350.863281 167.582031 L 326.867188 181.445312 C 325.457031 182.253906 323.695312 182.253906 322.285156 181.445312 C 320.859375 180.621094 319.988281 179.109375 319.988281 177.464844 L 319.988281 121.730469 C 319.988281 115.167969 316.484375 109.101562 310.800781 105.824219 L 197.878906 40.820312 Z M 197.878906 40.824219 " fill-opacity="1" fill-rule="nonzero"/></g></svg>