<svg xmlns="http://www.w3.org/2000/svg" xmlns:xlink="http://www.w3.org/1999/xlink" width="500" zoomAndPan="magnify" viewBox="0 0 375 374.999991" height="500" preserveAspectRatio="xMidYMid meet" version="1.0"><defs><g/></defs><g fill="#544f4d" fill-opacity="1"><g transform="translate(11.372977, 224.134146)"><g><path d="M 63.84375 -70.53125 L 38.421875 -70.53125 L 38.421875 0 L 28.03125 0 L 28.03125 -70.53125 L 2.65625 -70.53125 L 2.65625 -79.109375 L 63.84375 -79.109375 Z M 63.84375 -70.53125 "/></g></g></g><g fill="#544f4d" fill-opacity="1"><g transform="translate(71.095497, 224.134146)"><g><path d="M 36.03125 -49.765625 C 34.507812 -50.023438 32.859375 -50.15625 31.078125 -50.15625 C 24.484375 -50.15625 20.007812 -47.347656 17.65625 -41.734375 L 17.65625 0 L 7.609375 0 L 7.609375 -58.796875 L 17.390625 -58.796875 L 17.546875 -52 C 20.847656 -57.25 25.519531 -59.875 31.5625 -59.875 C 33.519531 -59.875 35.007812 -59.625 36.03125 -59.125 Z M 36.03125 -49.765625 "/></g></g></g><g fill="#544f4d" fill-opacity="1"><g transform="translate(102.073652, 224.134146)"><g><path d="M 43.90625 0 C 43.320312 -1.15625 42.847656 -3.21875 42.484375 -6.1875 C 37.816406 -1.332031 32.238281 1.09375 25.75 1.09375 C 19.957031 1.09375 15.203125 -0.546875 11.484375 -3.828125 C 7.773438 -7.109375 5.921875 -11.265625 5.921875 -16.296875 C 5.921875 -22.421875 8.25 -27.175781 12.90625 -30.5625 C 17.5625 -33.945312 24.109375 -35.640625 32.546875 -35.640625 L 42.328125 -35.640625 L 42.328125 -40.265625 C 42.328125 -43.773438 41.273438 -46.570312 39.171875 -48.65625 C 37.078125 -50.738281 33.984375 -51.78125 29.890625 -51.78125 C 26.296875 -51.78125 23.285156 -50.875 20.859375 -49.0625 C 18.429688 -47.25 17.21875 -45.054688 17.21875 -42.484375 L 7.125 -42.484375 C 7.125 -45.421875 8.160156 -48.253906 10.234375 -50.984375 C 12.316406 -53.722656 15.144531 -55.890625 18.71875 -57.484375 C 22.289062 -59.078125 26.210938 -59.875 30.484375 -59.875 C 37.253906 -59.875 42.554688 -58.179688 46.390625 -54.796875 C 50.234375 -51.410156 52.226562 -46.75 52.375 -40.8125 L 52.375 -13.75 C 52.375 -8.351562 53.0625 -4.0625 54.4375 -0.875 L 54.4375 0 Z M 27.21875 -7.65625 C 30.375 -7.65625 33.363281 -8.46875 36.1875 -10.09375 C 39.007812 -11.726562 41.054688 -13.851562 42.328125 -16.46875 L 42.328125 -28.53125 L 34.453125 -28.53125 C 22.128906 -28.53125 15.96875 -24.925781 15.96875 -17.71875 C 15.96875 -14.5625 17.019531 -12.09375 19.125 -10.3125 C 21.226562 -8.539062 23.925781 -7.65625 27.21875 -7.65625 Z M 27.21875 -7.65625 "/></g></g></g><g fill="#544f4d" fill-opacity="1"><g transform="translate(155.92775, 224.134146)"><g><path d="M 31.1875 -7.125 C 34.769531 -7.125 37.898438 -8.207031 40.578125 -10.375 C 43.265625 -12.550781 44.753906 -15.269531 45.046875 -18.53125 L 54.546875 -18.53125 C 54.367188 -15.15625 53.210938 -11.945312 51.078125 -8.90625 C 48.941406 -5.863281 46.085938 -3.4375 42.515625 -1.625 C 38.953125 0.1875 35.175781 1.09375 31.1875 1.09375 C 23.1875 1.09375 16.820312 -1.578125 12.09375 -6.921875 C 7.363281 -12.265625 5 -19.578125 5 -28.859375 L 5 -30.53125 C 5 -36.257812 6.046875 -41.347656 8.140625 -45.796875 C 10.242188 -50.253906 13.257812 -53.710938 17.1875 -56.171875 C 21.125 -58.640625 25.773438 -59.875 31.140625 -59.875 C 37.734375 -59.875 43.210938 -57.898438 47.578125 -53.953125 C 51.941406 -50.003906 54.265625 -44.878906 54.546875 -38.578125 L 45.046875 -38.578125 C 44.753906 -42.378906 43.3125 -45.503906 40.71875 -47.953125 C 38.132812 -50.398438 34.941406 -51.625 31.140625 -51.625 C 26.023438 -51.625 22.0625 -49.785156 19.25 -46.109375 C 16.445312 -42.429688 15.046875 -37.113281 15.046875 -30.15625 L 15.046875 -28.25 C 15.046875 -21.476562 16.441406 -16.265625 19.234375 -12.609375 C 22.023438 -8.953125 26.007812 -7.125 31.1875 -7.125 Z M 31.1875 -7.125 "/></g></g></g><g fill="#544f4d" fill-opacity="1"><g transform="translate(207.499701, 224.134146)"><g><path d="M 24.015625 -27.21875 L 17.71875 -20.640625 L 17.71875 0 L 7.65625 0 L 7.65625 -83.46875 L 17.71875 -83.46875 L 17.71875 -32.984375 L 23.09375 -39.453125 L 41.40625 -58.796875 L 53.625 -58.796875 L 30.75 -34.234375 L 56.296875 0 L 44.5 0 Z M 24.015625 -27.21875 "/></g></g></g><g fill="#d8bdad" fill-opacity="1"><g transform="translate(254.054899, 224.784852)"><g><path d="M 19.671875 -8.53125 L 57.15625 -8.53125 L 57.15625 0 L 9.1875 0 L 9.1875 -79.109375 L 19.671875 -79.109375 Z M 19.671875 -8.53125 "/></g></g></g><g fill="#d8bdad" fill-opacity="1"><g transform="translate(307.256264, 224.784852)"><g><path d="M 26.84375 -14.71875 L 40.53125 -58.796875 L 51.296875 -58.796875 L 27.65625 9.078125 C 24 18.859375 18.1875 23.75 10.21875 23.75 L 8.3125 23.578125 L 4.5625 22.875 L 4.5625 14.71875 L 7.28125 14.9375 C 10.6875 14.9375 13.335938 14.25 15.234375 12.875 C 17.140625 11.5 18.707031 8.984375 19.9375 5.328125 L 22.171875 -0.65625 L 1.203125 -58.796875 L 12.171875 -58.796875 Z M 26.84375 -14.71875 "/></g></g></g></svg>